name Walk2.mot
datacolumns 19
datarows 27
range 2.13500000 2.26500000
endheader

                time	   L_ground_force_vx	   L_ground_force_vy	   L_ground_force_vz	   L_ground_force_px	   L_ground_force_py	   L_ground_force_pz	   R_ground_force_vx	   R_ground_force_vy	   R_ground_force_vz	   R_ground_force_px	   R_ground_force_py	   R_ground_force_pz	   L_ground_torque_x	   L_ground_torque_y	   L_ground_torque_z	   R_ground_torque_x	   R_ground_torque_y	   R_ground_torque_z	
          2.13500000	          0.05968746	          0.15293621	         -0.00330956	         -0.00024473	          0.00000000	         -0.00005881	        -23.64657883	        731.49514161	        -53.63696651	          0.33949739	          0.00000000	          0.12793847	          0.00000000	          0.00032473	          0.00000000	          0.00000000	          7.10961960	          0.00000000	
          2.14000000	          0.04214889	          0.10396623	         -0.00355410	         -0.00021219	          0.00000000	         -0.00005127	        -22.38257875	        727.35518645	        -52.69185829	          0.34134528	          0.00000000	          0.12808618	          0.00000000	          0.00022632	          0.00000000	          0.00000000	          6.76669126	          0.00000000	
          2.14500000	          0.02756828	          0.06434025	         -0.00342982	         -0.00017453	          0.00000000	         -0.00004239	        -21.18963549	        723.63585961	        -51.80250379	          0.34319542	          0.00000000	          0.12824188	          0.00000000	          0.00014530	          0.00000000	          0.00000000	          6.43789141	          0.00000000	
          2.15000000	          0.01603770	          0.03384035	         -0.00307887	         -0.00013659	          0.00000000	         -0.00003333	        -20.06860143	        720.31149150	        -50.98056536	          0.34505153	          0.00000000	          0.12841101	          0.00000000	          0.00008186	          0.00000000	          0.00000000	          6.12524369	          0.00000000	
          2.15500000	          0.00737497	          0.01160499	         -0.00261031	         -0.00010145	          0.00000000	         -0.00002489	        -19.01628066	        717.35529994	        -50.23673378	          0.34691741	          0.00000000	          0.12859793	          0.00000000	          0.00003470	          0.00000000	          0.00000000	          5.83010857	          0.00000000	
          2.16000000	          0.00123646	         -0.00357193	         -0.00210339	         -0.00007089	          0.00000000	         -0.00001751	        -18.02637373	        714.74544054	        -49.58010855	          0.34879467	          0.00000000	          0.12880629	          0.00000000	          0.00000172	          0.00000000	          0.00000000	          5.55267129	          0.00000000	
          2.16500000	         -0.00279783	         -0.01302210	         -0.00161196	         -0.00004569	          0.00000000	         -0.00001139	        -17.09072983	        712.46826897	        -49.01954093	          0.35068004	          0.00000000	          0.12903746	          0.00000000	         -0.00001957	          0.00000000	          0.00000000	          5.29222122	          0.00000000	
          2.17000000	         -0.00516368	         -0.01805242	         -0.00116933	         -0.00002591	          0.00000000	         -0.00000657	        -16.19988299	        710.51807225	        -48.56392725	          0.35256758	          0.00000000	          0.12928986	          0.00000000	         -0.00003168	          0.00000000	          0.00000000	          5.04718800	          0.00000000	
          2.17500000	         -0.00627246	         -0.01985054	         -0.00079299	         -0.00001118	          0.00000000	         -0.00000296	        -15.34228053	        708.89718851	        -48.21989834	          0.35444982	          0.00000000	          0.12956067	          0.00000000	         -0.00003693	          0.00000000	          0.00000000	          4.81532215	          0.00000000	
          2.18000000	         -0.00648743	         -0.01943370	         -0.00048894	         -0.00000085	          0.00000000	         -0.00000040	        -14.50438087	        707.61712528	        -47.99138103	          0.35631777	          0.00000000	          0.12984714	          0.00000000	         -0.00003739	          0.00000000	          0.00000000	          4.59411802	          0.00000000	
          2.18500000	         -0.00611220	         -0.01762942	         -0.00025529	          0.00000584	          0.00000000	          0.00000126	        -13.67244076	        706.69705112	        -47.87908238	          0.35816258	          0.00000000	          0.13014716	          0.00000000	         -0.00003472	          0.00000000	          0.00000000	          4.38114872	          0.00000000	
          2.19000000	         -0.00538818	         -0.01507809	         -0.00008527	          0.00000967	          0.00000000	          0.00000223	        -12.83444534	        706.16092897	        -47.87935603	          0.35997598	          0.00000000	          0.13045914	          0.00000000	         -0.00003026	          0.00000000	          0.00000000	          4.17421244	          0.00000000	
          2.19500000	         -0.00449773	         -0.01224948	          0.00003051	          0.00001136	          0.00000000	          0.00000268	        -11.98143989	        706.03444757	        -47.98327052	          0.36174923	          0.00000000	          0.13078153	          0.00000000	         -0.00002501	          0.00000000	          0.00000000	          3.97150341	          0.00000000	
          2.20000000	         -0.00357099	         -0.00946676	          0.00010234	          0.00001155	          0.00000000	          0.00000275	        -11.10705572	        706.33993028	        -48.17634962	          0.36347263	          0.00000000	          0.13111195	          0.00000000	         -0.00001966	          0.00000000	          0.00000000	          3.77182758	          0.00000000	
          2.20500000	         -0.00269427	         -0.00693355	          0.00014032	          0.00001075	          0.00000000	          0.00000258	        -10.20685346	        707.09009879	        -48.43991359	          0.36513656	          0.00000000	          0.13144592	          0.00000000	         -0.00001468	          0.00000000	          0.00000000	          3.57449370	          0.00000000	
          2.21000000	         -0.00191896	         -0.00476070	          0.00015357	          0.00000939	          0.00000000	          0.00000227	         -9.27843730	        708.28842756	        -48.75313068	          0.36673303	          0.00000000	          0.13177876	          0.00000000	         -0.00001032	          0.00000000	          0.00000000	          3.37927471	          0.00000000	
          2.21500000	         -0.00127000	         -0.00299077	          0.00014992	          0.00000778	          0.00000000	          0.00000189	         -8.32092085	        709.93193027	        -49.09551966	          0.36825590	          0.00000000	          0.13210704	          0.00000000	         -0.00000671	          0.00000000	          0.00000000	          3.18599702	          0.00000000	
          2.22000000	         -0.00075340	         -0.00161922	          0.00013573	          0.00000613	          0.00000000	          0.00000149	         -7.33402449	        712.01121118	        -49.44919532	          0.36970172	          0.00000000	          0.13242812	          0.00000000	         -0.00000387	          0.00000000	          0.00000000	          2.99412529	          0.00000000	
          2.22500000	         -0.00036252	         -0.00061161	          0.00011589	          0.00000458	          0.00000000	          0.00000112	         -6.31688338	        714.50753563	        -49.80087012	          0.37107058	          0.00000000	          0.13273909	          0.00000000	         -0.00000174	          0.00000000	          0.00000000	          2.80290327	          0.00000000	
          2.23000000	         -0.00008319	          0.00008293	          0.00009400	          0.00000323	          0.00000000	          0.00000080	         -5.26746618	        717.39317161	        -50.14343804	          0.37236520	          0.00000000	          0.13303694	          0.00000000	         -0.00000023	          0.00000000	          0.00000000	          2.61154739	          0.00000000	
          2.23500000	          0.00010252	          0.00052176	          0.00007253	          0.00000211	          0.00000000	          0.00000053	         -4.18321090	        720.63616414	        -50.47611628	          0.37358874	          0.00000000	          0.13331937	          0.00000000	          0.00000075	          0.00000000	          0.00000000	          2.41907095	          0.00000000	
          2.24000000	          0.00021350	          0.00076191	          0.00005303	          0.00000122	          0.00000000	          0.00000031	         -3.06084361	        724.20482679	        -50.80291188	          0.37474409	          0.00000000	          0.13358473	          0.00000000	          0.00000132	          0.00000000	          0.00000000	          2.22425972	          0.00000000	
          2.24500000	          0.00026779	          0.00085565	          0.00003633	          0.00000056	          0.00000000	          0.00000015	         -1.89503578	        728.07038888	        -51.13149162	          0.37583530	          0.00000000	          0.13383267	          0.00000000	          0.00000158	          0.00000000	          0.00000000	          2.02613943	          0.00000000	
          2.25000000	          0.00028142	          0.00084810	          0.00002274	          0.00000009	          0.00000000	          0.00000003	         -0.67790451	        732.20442915	        -51.47244315	          0.37686806	          0.00000000	          0.13406323	          0.00000000	          0.00000163	          0.00000000	          0.00000000	          1.82393029	          0.00000000	
          2.25500000	          0.00026791	          0.00077618	          0.00001223	         -0.00000022	          0.00000000	         -0.00000005	          0.60084994	        736.58235310	        -51.83848379	          0.37784796	          0.00000000	          0.13427672	          0.00000000	          0.00000152	          0.00000000	          0.00000000	          1.61657292	          0.00000000	
          2.26000000	          0.00023805	          0.00066867	          0.00000453	         -0.00000040	          0.00000000	         -0.00000009	          1.95369604	        741.18421085	        -52.24402191	          0.37877855	          0.00000000	          0.13447350	          0.00000000	          0.00000134	          0.00000000	          0.00000000	          1.40263322	          0.00000000	
          2.26500000	          0.00020008	          0.00054685	         -0.00000077	         -0.00000049	          0.00000000	         -0.00000011	          3.39451217	        745.99450871	        -52.70362048	          0.37966207	          0.00000000	          0.13465321	          0.00000000	          0.00000111	          0.00000000	          0.00000000	          1.18034949	          0.00000000	
